<?xml version="1.0" encoding="iso-8859-1"?>
<!-- Generator: Adobe Illustrator 19.0.0, SVG Export Plug-In . SVG Version: 6.00 Build 0)  -->
<svg version="1.1" id="Layer_1" xmlns="http://www.w3.org/2000/svg" xmlns:xlink="http://www.w3.org/1999/xlink" x="0px" y="0px"
	 viewBox="0 0 512 512" style="enable-background:new 0 0 512 512;" xml:space="preserve">
<circle style="fill:#C2001B;" cx="256" cy="256" r="256"/>
<path style="fill:#940030;" d="M510.967,233.072L381.695,103.781L134.787,405.187l106.68,106.394
	C246.279,511.85,251.121,512,256,512c141.384,0,256-114.616,256-256C512,248.27,511.638,240.628,510.967,233.072z"/>
<path style="fill:#D48B07;" d="M377.108,410.128h-35.357c-3.569,0-6.461-2.893-6.461-6.461v-35.357c0-3.569,2.893-6.461,6.461-6.461
	h35.357c3.568,0,6.461,2.893,6.461,6.461v35.357C383.569,407.235,380.676,410.128,377.108,410.128z"/>
<path style="fill:#FFC91B;" d="M377.108,374.655h-35.357c-3.569,0-6.461-2.893-6.461-6.461v-35.357c0-3.568,2.893-6.461,6.461-6.461
	h35.357c3.568,0,6.461,2.893,6.461,6.461v35.357C383.569,371.762,380.676,374.655,377.108,374.655z"/>
<path style="fill:#D48B07;" d="M377.108,342.583h-35.357c-3.569,0-6.461-2.893-6.461-6.461v-35.357c0-3.569,2.893-6.461,6.461-6.461
	h35.357c3.568,0,6.461,2.893,6.461,6.461v35.357C383.569,339.69,380.676,342.583,377.108,342.583z"/>
<path style="fill:#FFC91B;" d="M377.108,310.512h-35.357c-3.569,0-6.461-2.893-6.461-6.461v-35.357c0-3.568,2.893-6.461,6.461-6.461
	h35.357c3.568,0,6.461,2.893,6.461,6.461v35.357C383.569,307.619,380.676,310.512,377.108,310.512z"/>
<path style="fill:#D48B07;" d="M377.108,278.44h-35.357c-3.569,0-6.461-2.893-6.461-6.461v-35.357c0-3.569,2.893-6.461,6.461-6.461
	h35.357c3.568,0,6.461,2.893,6.461,6.461v35.357C383.569,275.546,380.676,278.44,377.108,278.44z"/>
<path style="fill:#FFC91B;" d="M377.108,246.367h-35.357c-3.569,0-6.461-2.893-6.461-6.461v-35.357c0-3.568,2.893-6.461,6.461-6.461
	h35.357c3.568,0,6.461,2.893,6.461,6.461v35.357C383.569,243.474,380.676,246.367,377.108,246.367z"/>
<path style="fill:#D48B07;" d="M377.108,214.295h-35.357c-3.569,0-6.461-2.893-6.461-6.461v-35.357c0-3.568,2.893-6.461,6.461-6.461
	h35.357c3.568,0,6.461,2.893,6.461,6.461v35.357C383.569,211.403,380.676,214.295,377.108,214.295z"/>
<path style="fill:#FFC91B;" d="M377.108,182.224h-35.357c-3.569,0-6.461-2.893-6.461-6.461v-35.357c0-3.568,2.893-6.461,6.461-6.461
	h35.357c3.568,0,6.461,2.893,6.461,6.461v35.357C383.569,179.331,380.676,182.224,377.108,182.224z"/>
<path style="fill:#FFFFFF;" d="M377.108,101.872H147.654c-10.618,0-19.223,8.607-19.223,19.223v269.808
	c0,10.618,8.607,19.223,19.223,19.223h201.037V150.15h28.415c3.568,0,6.461-2.893,6.461-6.461v-35.357
	C383.569,104.765,380.676,101.872,377.108,101.872z"/>
<path style="fill:#D8D8D8;" d="M377.108,101.872H257.724v308.257h90.967V150.15h28.415c3.568,0,6.461-2.893,6.461-6.461v-35.357
	C383.569,104.763,380.676,101.872,377.108,101.872z"/>
<g>
	<path style="fill:#D48B07;" d="M281.681,173.194h-80.415c-2.381,0-4.31-1.929-4.31-4.31s1.929-4.31,4.31-4.31h80.415
		c2.381,0,4.31,1.929,4.31,4.31S284.06,173.194,281.681,173.194z"/>
	<path style="fill:#D48B07;" d="M281.681,199.999h-80.415c-2.381,0-4.31-1.929-4.31-4.31s1.929-4.31,4.31-4.31h80.415
		c2.381,0,4.31,1.929,4.31,4.31S284.06,199.999,281.681,199.999z"/>
	<path style="fill:#D48B07;" d="M281.681,226.802h-80.415c-2.381,0-4.31-1.929-4.31-4.31s1.929-4.31,4.31-4.31h80.415
		c2.381,0,4.31,1.929,4.31,4.31S284.06,226.802,281.681,226.802z"/>
	<path style="fill:#D48B07;" d="M281.681,253.607h-80.415c-2.381,0-4.31-1.929-4.31-4.31c0-2.381,1.929-4.31,4.31-4.31h80.415
		c2.381,0,4.31,1.929,4.31,4.31C285.991,251.678,284.06,253.607,281.681,253.607z"/>
</g>
<g>
</g>
<g>
</g>
<g>
</g>
<g>
</g>
<g>
</g>
<g>
</g>
<g>
</g>
<g>
</g>
<g>
</g>
<g>
</g>
<g>
</g>
<g>
</g>
<g>
</g>
<g>
</g>
<g>
</g>
</svg>
